<mxfile host="app.diagrams.net" agent="Mozilla/5.0 (X11; Linux x86_64) AppleWebKit/537.36 (KHTML, like Gecko) Chrome/129.0.0.0 Safari/537.36" version="24.8.0">
  <diagram name="Страница — 1" id="b8g2IlyIvL_1kuamK1L0">
    <mxGraphModel dx="1364" dy="793" grid="1" gridSize="10" guides="1" tooltips="1" connect="1" arrows="1" fold="1" page="1" pageScale="1" pageWidth="827" pageHeight="1169" math="0" shadow="0">
      <root>
        <mxCell id="0" />
        <mxCell id="1" parent="0" />
        <mxCell id="fnXmz2nF8oUeoqAbC-up-1" value="" style="rounded=1;whiteSpace=wrap;html=1;" vertex="1" parent="1">
          <mxGeometry x="30" y="220" width="760" height="390" as="geometry" />
        </mxCell>
        <mxCell id="fnXmz2nF8oUeoqAbC-up-2" value="Сдача на права" style="text;html=1;align=center;verticalAlign=middle;whiteSpace=wrap;rounded=0;" vertex="1" parent="1">
          <mxGeometry x="320" y="230" width="60" height="30" as="geometry" />
        </mxCell>
        <mxCell id="fnXmz2nF8oUeoqAbC-up-3" value="" style="rounded=1;whiteSpace=wrap;html=1;" vertex="1" parent="1">
          <mxGeometry x="120" y="300" width="470" height="260" as="geometry" />
        </mxCell>
        <mxCell id="fnXmz2nF8oUeoqAbC-up-4" value="Не сдано" style="text;html=1;align=center;verticalAlign=middle;whiteSpace=wrap;rounded=0;" vertex="1" parent="1">
          <mxGeometry x="300" y="300" width="60" height="30" as="geometry" />
        </mxCell>
        <mxCell id="fnXmz2nF8oUeoqAbC-up-7" value="" style="ellipse;html=1;shape=startState;fillColor=#000000;strokeColor=#ff0000;" vertex="1" parent="1">
          <mxGeometry x="40" y="420" width="30" height="30" as="geometry" />
        </mxCell>
        <mxCell id="fnXmz2nF8oUeoqAbC-up-9" value="" style="rounded=1;whiteSpace=wrap;html=1;" vertex="1" parent="1">
          <mxGeometry x="200" y="340" width="100" height="60" as="geometry" />
        </mxCell>
        <mxCell id="fnXmz2nF8oUeoqAbC-up-10" value="Теор. занятия" style="text;html=1;align=center;verticalAlign=middle;whiteSpace=wrap;rounded=0;" vertex="1" parent="1">
          <mxGeometry x="220" y="340" width="60" height="30" as="geometry" />
        </mxCell>
        <mxCell id="fnXmz2nF8oUeoqAbC-up-14" value="" style="rounded=1;whiteSpace=wrap;html=1;" vertex="1" parent="1">
          <mxGeometry x="370" y="340" width="100" height="60" as="geometry" />
        </mxCell>
        <mxCell id="fnXmz2nF8oUeoqAbC-up-15" value="Теор. экзамен" style="text;html=1;align=center;verticalAlign=middle;whiteSpace=wrap;rounded=0;" vertex="1" parent="1">
          <mxGeometry x="384" y="340" width="60" height="30" as="geometry" />
        </mxCell>
        <mxCell id="fnXmz2nF8oUeoqAbC-up-17" value="" style="endArrow=none;dashed=1;html=1;rounded=0;entryX=-0.002;entryY=0.454;entryDx=0;entryDy=0;entryPerimeter=0;exitX=0.998;exitY=0.446;exitDx=0;exitDy=0;exitPerimeter=0;" edge="1" parent="1" source="fnXmz2nF8oUeoqAbC-up-3" target="fnXmz2nF8oUeoqAbC-up-3">
          <mxGeometry width="50" height="50" relative="1" as="geometry">
            <mxPoint x="590" y="410" as="sourcePoint" />
            <mxPoint x="640" y="360" as="targetPoint" />
          </mxGeometry>
        </mxCell>
        <mxCell id="fnXmz2nF8oUeoqAbC-up-18" value="" style="rounded=1;whiteSpace=wrap;html=1;" vertex="1" parent="1">
          <mxGeometry x="200" y="460" width="100" height="60" as="geometry" />
        </mxCell>
        <mxCell id="fnXmz2nF8oUeoqAbC-up-19" value="Практ. занятия" style="text;html=1;align=center;verticalAlign=middle;whiteSpace=wrap;rounded=0;" vertex="1" parent="1">
          <mxGeometry x="220" y="460" width="60" height="30" as="geometry" />
        </mxCell>
        <mxCell id="fnXmz2nF8oUeoqAbC-up-20" value="" style="rounded=1;whiteSpace=wrap;html=1;" vertex="1" parent="1">
          <mxGeometry x="370" y="460" width="100" height="60" as="geometry" />
        </mxCell>
        <mxCell id="fnXmz2nF8oUeoqAbC-up-21" value="Практ. экзамен" style="text;html=1;align=center;verticalAlign=middle;whiteSpace=wrap;rounded=0;" vertex="1" parent="1">
          <mxGeometry x="390" y="460" width="60" height="30" as="geometry" />
        </mxCell>
        <mxCell id="fnXmz2nF8oUeoqAbC-up-22" value="" style="ellipse;html=1;shape=startState;fillColor=#000000;strokeColor=#ff0000;" vertex="1" parent="1">
          <mxGeometry x="140" y="350" width="30" height="30" as="geometry" />
        </mxCell>
        <mxCell id="fnXmz2nF8oUeoqAbC-up-24" value="" style="endArrow=classic;html=1;rounded=0;exitX=1;exitY=0.5;exitDx=0;exitDy=0;" edge="1" parent="1" source="fnXmz2nF8oUeoqAbC-up-9">
          <mxGeometry width="50" height="50" relative="1" as="geometry">
            <mxPoint x="590" y="410" as="sourcePoint" />
            <mxPoint x="370" y="370" as="targetPoint" />
          </mxGeometry>
        </mxCell>
        <mxCell id="fnXmz2nF8oUeoqAbC-up-26" value="" style="ellipse;html=1;shape=endState;fillColor=#000000;strokeColor=#ff0000;" vertex="1" parent="1">
          <mxGeometry x="530" y="355" width="30" height="30" as="geometry" />
        </mxCell>
        <mxCell id="fnXmz2nF8oUeoqAbC-up-27" value="" style="ellipse;html=1;shape=endState;fillColor=#000000;strokeColor=#ff0000;" vertex="1" parent="1">
          <mxGeometry x="530" y="475" width="30" height="30" as="geometry" />
        </mxCell>
        <mxCell id="fnXmz2nF8oUeoqAbC-up-28" value="" style="ellipse;html=1;shape=startState;fillColor=#000000;strokeColor=#ff0000;" vertex="1" parent="1">
          <mxGeometry x="140" y="475" width="30" height="30" as="geometry" />
        </mxCell>
        <mxCell id="fnXmz2nF8oUeoqAbC-up-30" value="" style="endArrow=classic;html=1;rounded=0;exitX=1;exitY=0.5;exitDx=0;exitDy=0;entryX=-0.004;entryY=0.527;entryDx=0;entryDy=0;entryPerimeter=0;" edge="1" parent="1" source="fnXmz2nF8oUeoqAbC-up-7" target="fnXmz2nF8oUeoqAbC-up-3">
          <mxGeometry width="50" height="50" relative="1" as="geometry">
            <mxPoint x="590" y="410" as="sourcePoint" />
            <mxPoint x="640" y="360" as="targetPoint" />
          </mxGeometry>
        </mxCell>
        <mxCell id="fnXmz2nF8oUeoqAbC-up-31" value="" style="endArrow=classic;html=1;rounded=0;exitX=1;exitY=0.5;exitDx=0;exitDy=0;entryX=-0.04;entryY=0.4;entryDx=0;entryDy=0;entryPerimeter=0;" edge="1" parent="1" source="fnXmz2nF8oUeoqAbC-up-22" target="fnXmz2nF8oUeoqAbC-up-9">
          <mxGeometry width="50" height="50" relative="1" as="geometry">
            <mxPoint x="590" y="410" as="sourcePoint" />
            <mxPoint x="640" y="360" as="targetPoint" />
          </mxGeometry>
        </mxCell>
        <mxCell id="fnXmz2nF8oUeoqAbC-up-32" value="" style="endArrow=classic;html=1;rounded=0;exitX=1;exitY=0.5;exitDx=0;exitDy=0;entryX=0;entryY=0.5;entryDx=0;entryDy=0;" edge="1" parent="1" source="fnXmz2nF8oUeoqAbC-up-14" target="fnXmz2nF8oUeoqAbC-up-26">
          <mxGeometry width="50" height="50" relative="1" as="geometry">
            <mxPoint x="590" y="410" as="sourcePoint" />
            <mxPoint x="640" y="360" as="targetPoint" />
          </mxGeometry>
        </mxCell>
        <mxCell id="fnXmz2nF8oUeoqAbC-up-33" value="" style="endArrow=classic;html=1;rounded=0;exitX=1;exitY=0.5;exitDx=0;exitDy=0;entryX=0;entryY=0.5;entryDx=0;entryDy=0;" edge="1" parent="1" source="fnXmz2nF8oUeoqAbC-up-28" target="fnXmz2nF8oUeoqAbC-up-18">
          <mxGeometry width="50" height="50" relative="1" as="geometry">
            <mxPoint x="590" y="410" as="sourcePoint" />
            <mxPoint x="640" y="360" as="targetPoint" />
          </mxGeometry>
        </mxCell>
        <mxCell id="fnXmz2nF8oUeoqAbC-up-34" value="" style="endArrow=classic;html=1;rounded=0;exitX=1;exitY=0.5;exitDx=0;exitDy=0;entryX=0;entryY=0.5;entryDx=0;entryDy=0;" edge="1" parent="1" source="fnXmz2nF8oUeoqAbC-up-18" target="fnXmz2nF8oUeoqAbC-up-20">
          <mxGeometry width="50" height="50" relative="1" as="geometry">
            <mxPoint x="590" y="410" as="sourcePoint" />
            <mxPoint x="640" y="360" as="targetPoint" />
          </mxGeometry>
        </mxCell>
        <mxCell id="fnXmz2nF8oUeoqAbC-up-35" value="" style="endArrow=classic;html=1;rounded=0;exitX=1;exitY=0.5;exitDx=0;exitDy=0;entryX=0;entryY=0.5;entryDx=0;entryDy=0;" edge="1" parent="1" source="fnXmz2nF8oUeoqAbC-up-20" target="fnXmz2nF8oUeoqAbC-up-27">
          <mxGeometry width="50" height="50" relative="1" as="geometry">
            <mxPoint x="590" y="410" as="sourcePoint" />
            <mxPoint x="640" y="360" as="targetPoint" />
          </mxGeometry>
        </mxCell>
        <mxCell id="fnXmz2nF8oUeoqAbC-up-37" value="Права получены" style="rounded=1;whiteSpace=wrap;html=1;" vertex="1" parent="1">
          <mxGeometry x="620" y="350" width="120" height="60" as="geometry" />
        </mxCell>
        <mxCell id="fnXmz2nF8oUeoqAbC-up-38" value="" style="endArrow=classic;html=1;rounded=0;exitX=1;exitY=0.346;exitDx=0;exitDy=0;exitPerimeter=0;entryX=-0.025;entryY=0.633;entryDx=0;entryDy=0;entryPerimeter=0;" edge="1" parent="1" source="fnXmz2nF8oUeoqAbC-up-3" target="fnXmz2nF8oUeoqAbC-up-37">
          <mxGeometry width="50" height="50" relative="1" as="geometry">
            <mxPoint x="590" y="410" as="sourcePoint" />
            <mxPoint x="640" y="360" as="targetPoint" />
          </mxGeometry>
        </mxCell>
        <mxCell id="fnXmz2nF8oUeoqAbC-up-39" value="Сдан" style="text;html=1;align=center;verticalAlign=middle;whiteSpace=wrap;rounded=0;" vertex="1" parent="1">
          <mxGeometry x="470" y="350" width="60" height="30" as="geometry" />
        </mxCell>
        <mxCell id="fnXmz2nF8oUeoqAbC-up-40" value="Сдан" style="text;html=1;align=center;verticalAlign=middle;whiteSpace=wrap;rounded=0;" vertex="1" parent="1">
          <mxGeometry x="470" y="460" width="60" height="30" as="geometry" />
        </mxCell>
        <mxCell id="fnXmz2nF8oUeoqAbC-up-42" value="Права не получены" style="rounded=1;whiteSpace=wrap;html=1;" vertex="1" parent="1">
          <mxGeometry x="620" y="475" width="120" height="60" as="geometry" />
        </mxCell>
        <mxCell id="fnXmz2nF8oUeoqAbC-up-43" value="" style="endArrow=classic;html=1;rounded=0;exitX=0;exitY=1;exitDx=0;exitDy=0;entryX=0;entryY=0.5;entryDx=0;entryDy=0;" edge="1" parent="1" source="fnXmz2nF8oUeoqAbC-up-39" target="fnXmz2nF8oUeoqAbC-up-42">
          <mxGeometry width="50" height="50" relative="1" as="geometry">
            <mxPoint x="590" y="410" as="sourcePoint" />
            <mxPoint x="640" y="360" as="targetPoint" />
          </mxGeometry>
        </mxCell>
        <mxCell id="fnXmz2nF8oUeoqAbC-up-44" value="" style="endArrow=classic;html=1;rounded=0;exitX=1;exitY=1;exitDx=0;exitDy=0;entryX=0;entryY=0.75;entryDx=0;entryDy=0;" edge="1" parent="1" source="fnXmz2nF8oUeoqAbC-up-20" target="fnXmz2nF8oUeoqAbC-up-42">
          <mxGeometry width="50" height="50" relative="1" as="geometry">
            <mxPoint x="590" y="410" as="sourcePoint" />
            <mxPoint x="640" y="360" as="targetPoint" />
          </mxGeometry>
        </mxCell>
        <mxCell id="fnXmz2nF8oUeoqAbC-up-45" value="Не сдан" style="text;html=1;align=center;verticalAlign=middle;whiteSpace=wrap;rounded=0;" vertex="1" parent="1">
          <mxGeometry x="530" y="420" width="60" height="30" as="geometry" />
        </mxCell>
        <mxCell id="fnXmz2nF8oUeoqAbC-up-46" value="Не сдан" style="text;html=1;align=center;verticalAlign=middle;whiteSpace=wrap;rounded=0;" vertex="1" parent="1">
          <mxGeometry x="510" y="510" width="60" height="30" as="geometry" />
        </mxCell>
      </root>
    </mxGraphModel>
  </diagram>
</mxfile>
